<svg xmlns="http://www.w3.org/2000/svg" xmlns:xlink="http://www.w3.org/1999/xlink" version="1.1" x="0px" y="0px" viewBox="0 0 100 125" enable-background="new 0 0 100 100" xml:space="preserve"><path d="M93.863,22.421c-0.714-8.662-7.622-15.57-16.284-16.284c-18.386-1.516-36.772-1.516-55.158,0  c-8.662,0.714-15.57,7.622-16.285,16.284c-1.516,18.386-1.516,36.772,0,55.158c0.714,8.662,7.622,15.57,16.285,16.284  c18.386,1.516,36.772,1.516,55.158,0c8.662-0.714,15.57-7.622,16.284-16.284C95.379,59.193,95.379,40.807,93.863,22.421z   M26.728,72.248c-0.889,0.89-2.057,1.335-3.223,1.335s-2.333-0.445-3.223-1.335c-1.781-1.781-1.781-4.667,0-6.447L36.084,50  L20.282,34.199c-1.781-1.78-1.781-4.666,0-6.447c1.778-1.779,4.665-1.779,6.446,0l19.025,19.025  c0.855,0.855,1.335,2.014,1.335,3.223s-0.481,2.368-1.335,3.223L26.728,72.248z M76.494,69.76h-23.74  c-2.517,0-4.558-2.041-4.558-4.558c0-2.517,2.041-4.558,4.558-4.558h23.74c2.517,0,4.558,2.041,4.558,4.558  C81.053,67.719,79.012,69.76,76.494,69.76z"/><text x="0" y="115" fill="#000000" font-size="5px" font-weight="bold" font-family="'Helvetica Neue', Helvetica, Arial-Unicode, Arial, Sans-serif">Created by Sokolov Dmitry</text><text x="0" y="120" fill="#000000" font-size="5px" font-weight="bold" font-family="'Helvetica Neue', Helvetica, Arial-Unicode, Arial, Sans-serif">from the Noun Project</text></svg>